<?xml version="1.0" encoding="UTF-8" standalone="no"?>
<svg
   version="1.1"
   width="588px"
   height="626px"
   viewBox="0 0 588 626"
   preserveAspectRatio="xMidYMid meet"
   id="svg184"
   sodipodi:docname="pydase-logo-colour-3.svg"
   inkscape:version="1.4 (e7c3feb100, 2024-10-09)"
   inkscape:export-filename="pydase-logo-colour-3.png"
   inkscape:export-xdpi="96"
   inkscape:export-ydpi="96"
   xmlns:inkscape="http://www.inkscape.org/namespaces/inkscape"
   xmlns:sodipodi="http://sodipodi.sourceforge.net/DTD/sodipodi-0.dtd"
   xmlns="http://www.w3.org/2000/svg"
   xmlns:svg="http://www.w3.org/2000/svg">
  <defs
     id="defs184" />
  <sodipodi:namedview
     id="namedview184"
     pagecolor="#ffffff"
     bordercolor="#000000"
     borderopacity="0.25"
     inkscape:showpageshadow="2"
     inkscape:pageopacity="0.0"
     inkscape:pagecheckerboard="0"
     inkscape:deskcolor="#d1d1d1"
     inkscape:zoom="0.70710678"
     inkscape:cx="48.083261"
     inkscape:cy="74.953318"
     inkscape:window-width="2048"
     inkscape:window-height="1243"
     inkscape:window-x="0"
     inkscape:window-y="0"
     inkscape:window-maximized="1"
     inkscape:current-layer="svg184"
     showgrid="false" />
  <g
     fill="#041b31"
     id="g1"
     style="display:inline"
     inkscape:label="Contour">
    <path
       d="m 249,624.5 c -0.8,-0.2 -4.9,-0.8 -9,-1.5 -23.8,-3.7 -65.4,-19 -91,-33.5 C 115.5,570.6 81,540.3 58.3,510 41.3,487.2 23.6,454.3 16.2,431.5 8.8,408.8 8.3,406.8 4.9,387.5 1.9,370.5 1.8,368 1.6,342 1.5,313.2 1.4,314 7.1,282.6 18.3,221.6 48.7,167 100.4,115.5 116.6,99.3 126.7,90.8 142.5,80.1 158.5,69.3 182.9,56 199.5,49 210.6,44.4 240.6,34.4 252,31.5 c 7.3,-1.8 22.4,-4.5 25.5,-4.5 0.2,0 2.7,-2.1 5.7,-4.6 C 301.8,6.5 318.4,1 348,0.9 c 17.1,0 36.4,1.4 46,3.2 3,0.6 14.7,4 26,7.4 11.3,3.5 27.3,8.2 35.5,10.4 17.5,4.8 27.3,9.3 33.4,15.3 5.5,5.5 8.1,10.7 8.8,17.4 0.3,3 0.9,5.4 1.4,5.4 4,0 19.5,-9.6 30.7,-19 8.1,-6.9 9.3,-6.9 11.3,-0.1 2,6.6 -0.6,10 -19,25.9 l -3.5,2.9 10.6,10.4 c 13.4,13.2 17.8,21.1 12.4,22.5 -2.9,0.7 -4.8,-0.3 -15.2,-7.8 C 516.1,87.4 503.2,80 500.5,80 c -1.6,0 -2.9,1.5 -5,6.1 -3.8,7.9 -13.7,17.7 -22.6,22.4 l -6.8,3.6 4.7,4.2 c 18.1,16.2 30.1,28 40.8,40 15.1,16.9 22.8,27 32.1,42.4 6.9,11.4 22.2,41.2 23.8,46.3 0.4,1.4 1.6,4.3 2.6,6.5 4.9,10.7 10.9,34.8 14.6,58.5 2.7,17.9 2.5,58.7 -0.5,77.8 -5.3,33.5 -9.2,47.1 -21.3,73.7 -12.6,27.8 -24.1,46.3 -40.8,65.6 -19.2,22.3 -38.5,39.4 -60.5,53.8 -10.2,6.6 -43.5,23 -54.7,26.9 -16.2,5.7 -44,11 -69.1,13.2 -6.9,0.6 -17.5,1.7 -23.5,2.5 -9.4,1.3 -59.9,2 -65.3,1 z m 99.5,-135.4 c 36.7,-9.2 67.4,-29.4 87.4,-57.6 7.2,-10.3 17.8,-31.2 21.6,-42.9 5.7,-17.8 7,-26.5 7,-48.3 0,-18 -0.4,-22.7 -2,-21.2 -0.2,0.3 -1.1,5 -2,10.4 -5.4,34.9 -14.4,55.5 -32.5,74.8 -16.6,17.7 -36.73987,31.75263 -59.4,38.2 -7.25764,2.06498 -18.96791,3.46589 -37.2,4.4 -35.48106,1.81785 -36.6,1.6 -43.6,5.3 -12.5,6.7 -18.3,17.8 -14.4,27.3 2,4.7 6.3,7.1 17.1,9.5 12.5,2.8 13.8,2.9 33,2.5 12.8,-0.3 19,-0.8 25,-2.4 z M 134.4,385.8 c 0.8,-2.9 2.5,-8.9 3.6,-13.3 7.9,-29.5 14.4,-45.5 25.2,-62 7.4,-11.4 12,-16.1 27,-27.5 8.1,-6.1 13.6,-9.4 23.3,-13.6 18.4,-8.1 23.2,-9 48.5,-9.8 36.8,-1.2 44.6,-2.8 53.9,-11.2 9.4,-8.5 10.8,-20 3.7,-30.6 -7.7,-11.7 -15.4,-15.1 -50.6,-22.2 -24.8,-5.1 -30,-6.3 -40.9,-9.7 l -7.3,-2.3 -5.5,2.9 c -9.6,5 -25.36942,18.22759 -38.5,31.3 -19.59963,19.51281 -30.17386,36.16842 -42.7,67.6 -4.80076,12.04646 -7.8,26.5 -9.2,37.8 -1.6,13.7 -0.7,38.8 2,50.6 2.7,12.1 4.2,17.2 5.2,17.2 0.4,0 1.4,-2.4 2.3,-5.2 z"
       id="path1"
       sodipodi:nodetypes="ccccccccccccscccccccscccccccsccccccccccccccccccccscccsscccccccccccccccccssccsc"
       style="fill:#041b31;fill-opacity:1" />
  </g>
  <g
     fill="#003051"
     id="g84"
     style="display:inline"
     inkscape:label="Very Dark Blue">
    <path
       d="M 230.4,602 C 175.34835,591.74645 169.18046,579.19949 127.38046,537.39949 126.28656,507.06066 124.35047,466.6837 125.4,421 c 3.1,7.5 6.91046,19.16537 8.35973,29.56569 3.51031,25.1907 16.4289,65.12981 36.44027,90.93431 22.43047,28.92391 69.16433,55.53771 88.55235,64.93033 C 249.09029,604.75095 241.4,604.1 230.4,602 Z"
       id="path70"
       sodipodi:nodetypes="cccsacc" />
    <path
       d="m 319.4,193.4 c -9.8,-5.8 -14.5,-7.1 -48.4,-14 -18.7,-3.7 -29,-4.8 -29,-6.5 0,-1.7 4.92805,-2.87104 12.5,-5.4 12.8566,-4.29398 19.24892,-5.98769 27.1,-7.9 24.01253,-5.84879 36.7,-8.7 48.4,-10.5 25.2,-4 35.7,-5.4 42.5,-5.5 6.2,-0.1 7.9,0.3 14.6,3.6 9.7,4.8 15.5,10 26.3,24 -32.58707,9.22703 -69.37398,17.37018 -94,22.2 z"
       id="path77"
       sodipodi:nodetypes="ccsssccccc" />
  </g>
  <g
     fill="#033f64"
     id="g97"
     style="display:inline"
     inkscape:label="Dark Blue">
    <path
       d="m 152.17414,396.63217 c 0.38601,-2.81096 5.82243,-25.08009 21.18483,-38.15736 33.76966,-28.74649 155.07007,-22.31003 192.71893,-28.8897 C 388.43397,313.23279 413.02792,214.49976 425.1,189.5 c 7.4,15 16.15078,54.97811 10.64936,81.97944 -4.26433,20.9296 -15.49967,42.2641 -32.45863,55.24972 -23.8158,18.23596 -36.39069,23.58236 -86.79073,23.77084 -83.29996,0.31152 -95.44833,-4.42471 -136.27417,16.21161 -12.20115,6.16734 -21.45976,18.1207 -28.05169,29.92056 z"
       id="path118"
       sodipodi:nodetypes="csccaasac"
       style="display:inline;fill:#18759e;fill-opacity:1;fill-rule:nonzero" />
    <path
       d="M 183.5,588.1 C 115.8931,558.47699 107.64772,492.94457 88.1,430.2335 79,400.6335 76.84251,387.87492 75,366.15 c -1.824643,-21.51425 -3.417479,-43.86578 2.1,-64.7404 8.432657,-31.90379 27.29188,-60.49473 46.1,-87.6096 11.8141,-17.03188 24.95272,-33.78473 41.4,-46.4 13.29518,-10.19757 29.7308,-15.48328 44.9,-22.6 23.68008,-11.10966 63.61618,-31.81861 71.93442,-31.35243 3.81558,6.62743 29.05267,18.5147 28.43398,19.68762 0.31235,2.20322 -15.49372,-1.71368 -93.0684,32.46481 -30.64541,13.50201 -57.7,42.3 -74.5,67.4 -13.2,19.7 -23.8,43.8 -29.8,67.5 -5.2,20.6 -5.8,26.4 -5.2,45.7 0.8,25.7 4.5,42 15.4,68.8 l 5.5,13.5 0.3,13 c 0.1,7.1 0.6,15.1 1,17.6 0.4,2.6 1.31647,9.84975 0.81647,10.14975 -1.3,0.8 -0.71647,10.65025 1.78353,20.75025 2.9,11.9 13.6,43.4 17,50.1 9.51543,25.08025 19.6983,31.17451 34.4,48 z"
       id="path92"
       sodipodi:nodetypes="ccaaaaaccsccccccccccc"
       style="fill:#18759e;fill-opacity:1" />
    <path
       d="M 336.53336,126.11775 C 326.2422,124.21015 287.27262,118.19694 281.1,72.4 398.98512,97.839775 428.5705,92.736362 481.94363,60.277903 c 0.3,15.65 -0.24934,17.091747 -5.11226,23.440508 -12.11958,15.82266 -34.57733,20.119399 -53.08407,27.518149 -15.89858,6.35605 -32.39842,11.77707 -49.33154,14.31356 -12.48954,1.87087 -28.16017,2.36977 -37.8824,0.56763 z"
       id="path121"
       sodipodi:nodetypes="sccaaas"
       style="display:inline;fill:#18759e;fill-opacity:1" />
  </g>
  <g
     fill="#c88700"
     id="g133"
     style="display:inline"
     inkscape:label="Orange">
    <path
       d="M387.4 69.6 c-2.7 -2.7 -3.4 -4.2 -3.4 -7.4 0 -4.7 2.9 -8.8 7.6 -10.8 5.2 -2.2 7.3 -1.7 11.5 2.5 5.2 5.1 5.4 10.3 0.8 15.6 -2.8 3.1 -3.6 3.5 -8.1 3.5 -4.4 0 -5.4 -0.4 -8.4 -3.4z"
       id="path125" />
    <path
       d="m 319.5,603.3 c -20.3,-1 -47.80327,-8.953 -69.9,-18.6 -12.64521,-5.52065 -23.8619,-13.95619 -35,-22.1 -5.09897,-3.72819 -9.99476,-7.77262 -14.5,-12.2 -8.10524,-7.96518 -17.7,-18.1 -22.4,-25.7 -13.9,-22.6 -23.4,-49.7 -26.7,-76.3 -1,-7.8 -0.9,-10.1 0.5,-15.5 3.5,-13.8 17.6,-39 26.3,-47.1 2.7,-2.6 8.1,-6.2 11.9,-8.1 8.6,-4.4 24.6,-9.3 33.8,-10.4 7.3,-0.9 66.1,-0.8 73,0.1 2.2,0.3 13.7,0.8 25.7,1.2 22.9,0.7 34.8,-0.2 49.2,-3.5 0,0 49.54914,-16.12943 68.7,-52.4 l 3.8,-7.2 0.1,6 c 0,8.5 -4.5,35.3 -7.5,44.2 -5.06001,15.02512 -12.78595,28.02413 -23.26042,39.12091 -9.81203,10.39498 -22.03592,19.12073 -36.73958,26.27909 -17.6,8.5 -16.2,8.2 -52,8.4 -30.6,0.1 -32.3,0.2 -37.6,2.3 -16.6,6.6 -26.4,18.6 -29.5,36.3 -1.6,8.9 -1.1,16.5 1.1,20.9 1.8,3.3 8.2,9.4 12.2,11.4 4.3,2.1 18.7,5.2 31.3,6.7 20.6,2.4 50,-1.8 71.5,-10.1 22.9,-8.9 41.8,-21.2 59,-38.4 18.5,-18.5 31.2,-39.3 39.5,-64.5 12.2,-37.2 12.4,-66.6 0.5,-107.7 -3.2,-11.2 -4.6,-14.9 -12,-30.8 -2.7,-6 -4.1,-11.8 -7,-30.5 -0.9,-5.7 -2.6,-13.8 -3.6,-18 -2.3,-9 -12.8,-31.1 -18.8,-39.6 -5.9,-8.4 -18.1,-21.5 -25.2,-27.1 -3.3,-2.6 -5.6,-5.1 -5.2,-5.5 0.4,-0.4 5.1,-1.9 10.3,-3.3 17.7,-5 26.1,-7.9 29.6,-10.2 1.9,-1.3 4.3,-2.4 5.2,-2.4 5,0.1 36,27 53.9,46.9 46.2,51.1 71.3,114.2 71.3,178.9 0,60.4 -17.3,114.5 -51.4,160.6 -14.1,19.3 -42.2,45.5 -64.6,60.6 -12.3,8.3 -21.8,13.2 -36.1,18.9 -40.2,15.9 -63.3,20.2 -99.4,18.4 z"
       id="path131"
       sodipodi:nodetypes="caaacccccccccccccsccccccccscccccccsccccscccc" />
  </g>
  <g
     fill="#38b3d3"
     id="g162"
     style="display:inline"
     inkscape:label="Blue">
    <path
       d="m 152.17414,396.63217 c -2.38519,-1.38132 9.27416,-52.79756 19.37815,-68.90898 16.15254,-24.81116 34.25689,-40.51929 62.0508,-48.64318 22.03094,-6.43944 64.62509,-4.00901 74.27424,-7.22545 5.13056,-1.80515 13.30143,-6.84069 18.81201,-11.68624 5.89061,-5.1305 11.1162,-14.91656 12.63633,-23.84749 1.71019,-9.88108 -0.47111,-21.90723 -6.47249,-30.32083 -2.85318,-4 -7.4141,-11.9156 -29.3718,-19.44781 19.92351,-5.56647 53.71798,-12.0993 80.70491,-17.53799 7.71528,-1.55487 13.91102,-2.63422 23.21371,-4.3142 21.30966,22.8642 21.21637,35.77338 26.93252,55.92264 0.0584,24.34066 -3.50141,45.36921 -16.09946,65.67248 -23.04998,44.93326 -65.30711,57.83541 -113.96611,59.38228 -72.68272,0.94776 -90.43688,2.59826 -116.76278,14.72068 -22.87446,10.53312 -33.71226,36.8281 -35.33003,36.23409 z"
       id="path159"
       sodipodi:nodetypes="csscccscacssssc"
       style="display:inline;stroke-width:0.999987" />
    <path
       d="M 59.627728,486.61872 C 26.249201,426.79436 20.062286,396.1054 18.4,359.3 17.560667,340.71596 17.7,316.6 19.4,303.5 23.8,271.6 35.4,236 51.1,206 75.3,160.1 119.7,111.9 162.1,85.7 194.42327,64.457719 225.27293,54.821946 268,43 c -4.38883,35.093545 0.24301,53.781332 18.43033,75.35581 -16.19179,5.17933 -38.68025,13.24334 -44.53566,15.38169 -16.14313,5.89535 -49.89323,20.65189 -79.79467,47.7625 -27.4732,24.909 -59.81413,81.60725 -65.712627,143.66935 -4.157076,43.73944 6.451807,84.86847 34.031537,142.43409 3.43378,24.64602 9.97891,73.87903 71.35443,127.63575 C 125.61659,570.1535 67.391777,500.53423 59.627728,486.61872 Z"
       id="path160"
       sodipodi:nodetypes="sscccccsssccs"
       style="display:inline" />
    <path
       d="m 332,111.5 c -7.6,-1.9 -19.1,-6.8 -24.2,-10.3 -5.6,-3.9 -14.42556,-11.925563 -21.72556,-10.225563 -0.59944,-1.638563 -2.45486,-5.992204 -3.00412,-8.525 C 277.37032,64.949437 281.9,46.6 294.8,33.2 c 6.5,-6.8 14.5,-10.9 27.7,-14.4 7,-1.9 10.6,-2.1 29,-2.1 28.2,0.1 42.1,2.5 71.2,12.3 6.8,2.2 19.1,5.8 27.4,8 16.6,4.4 23.6,7.6 28,12.9 2.6,3.2 3.87429,4.2 3.87429,11.2 v 7.7 L 473.8,73.7 c -4,2.8 -9.8,6.4 -12.8,8.1 -15.5,8.6 -69.4,26.1 -91.5,29.7 -11,1.8 -30.1,1.8 -37.5,0 z m 74.6,-27.4 c 8,-3.6 13.4,-13.3 13.4,-24 0,-7.1 -2.5,-12.5 -7.8,-17.3 -6.2,-5.6 -15.4,-7.3 -24.6,-4.6 -5.8,1.7 -14.1,10.2 -15.6,15.9 -3.2,11.9 3.1,25.6 14,30.3 4.9,2.1 15.5,2 20.6,-0.3 z"
       id="path162"
       sodipodi:nodetypes="ccccccccscsccccccsccccc" />
  </g>
  <g
     fill="#fccd00"
     id="g165"
     style="display:inline"
     inkscape:label="Yellow">
    <path
       d="M 290.57843,579.73223 C 262.53343,574.09041 238.11479,563.08508 212.75,550.7 189.86762,538.42339 184.68162,535.3415 175.4,519.55 c -7.00993,-11.92651 -30.58414,-55.74044 -23.8,-86.25 4.0198,-18.07777 14.86881,-43.99552 38.1,-55.6 16.46843,-0.10091 32.45479,1.52207 48.61284,3.12963 26.00767,2.58749 51.5763,9.85418 77.70491,10.47812 23.17389,0.55338 47.87531,2.89829 69.28278,-5.99304 22.20756,-9.22363 37.89511,-23.97358 55.12824,-46.53102 -2.5563,14.26912 -7.95593,45.65799 -44.98524,71.69133 -11.14814,7.83767 -23.62107,14.42481 -36.84575,17.7139 -10.72566,2.66757 -18.69625,1.20562 -33.13151,1.30575 C 310.59858,429.5978 291.1,429.3 281.1,434.3 c -12.2,6 -20.6,17.5 -23.7,32.3 -3.2,15.3 0.11875,24.31875 9.51875,31.11875 4.9,3.6 9.48125,5.48125 25.58125,8.38125 10.2,1.8 14.5,2 29,1.6 19.3,-0.6 27.7,-2.1 45,-7.8 65,-21.6 108.32042,-74.69846 114.2483,-146.4 0.5433,-6.57154 0.51635,-11.00098 0.35824,-16.5 -0.12685,-4.41201 -0.53376,-8.81617 -1.04757,-13.2 -0.31035,-2.64783 -0.73303,-5.28343 -1.22803,-7.90303 -1.04804,-5.54641 -2.17688,-11.08849 -3.68486,-16.52789 -3.8173,-13.76923 -7.04718,-27.944 -13.54608,-40.66908 -8.57845,-16.79692 -6.03317,-32.79012 -12.7776,-53.20969 -5.4006,-16.35095 -14.13511,-31.22562 -25.45092,-47.68672 9.20262,-3.00968 42.04296,-13.97755 50.15501,-17.80255 10.28756,9.39474 26.84483,25.52589 38.78601,40.81146 30.4959,39.03695 51.65187,83.78847 56.2875,132.1875 4.21372,43.99397 -0.37701,62.58021 -7.1,82.25 -6.8,20.7 -14.2,35.95 -22.6,53.65 -14.8,30.9 -37.8,59.1 -65.1,79.7 -34.6,26.2 -53.59209,36.03122 -84.7,43.9 -28.19212,7.13123 -69.76059,13.01808 -98.52157,7.23223 z"
       id="path163"
       sodipodi:nodetypes="sssscaaacsasccccccsaaaassccsscccss"
       style="display:inline" />
    <path
       d="M 391.3,71.5 C 387.8,70 384,64.8 384,61.4 c 0,-2.7 3.4,-7 7,-8.9 4.9,-2.5 7.8,-1.9 12.2,2.5 3.6,3.5 4,4.4 3.5,7.5 -0.7,4.5 -3.5,8.2 -7.1,9.5 -3.7,1.3 -4.4,1.2 -8.3,-0.5 z"
       id="path165" />
  </g>
  <g
     fill="#fafcfc"
     id="g183"
     inkscape:label="White"
     style="display:inline">
    <path
       d="M 292.22204,510.87608 C 280.22101,508.20541 268.81402,500.34672 263.69227,494.9842 275.64093,505.5687 304.1,508.3 321.5,507.7 c 21.55,-2.225 49.37501,-6.43114 86.62589,-28.91732 22.61919,-13.65389 51.87112,-50.42418 60.53015,-75.76929 6.66561,-19.51032 10.07957,-35.4123 12.39396,-53.90714 3.1459,18.64649 1.15198,36.57617 -1.3,46.46875 -2.9,11.1 -6.35,24.125 -11.95,34.225 -8.3,15.1 -27.2,38.1 -39.1,47.8 -25.5,20.5 -61.64365,33.01311 -92.85,36.3 -15.06775,1.58705 -35.15198,-1.1377 -43.62796,-3.02392 z"
       id="path174"
       sodipodi:nodetypes="sccssccccss" />
    <path
       d="M 28.4,416.5 C 15.349709,374.67557 18.014551,365.86291 17.43688,340.1625 17.048048,322.86353 19.119484,305.4699 22.5,288.5 c 10.62259,-53.3245 29.9,-91.9 61.3,-131 11,-13.7 40.9,-44 52.7,-53.5 C 166.2,80.3 209,59.4 252,47.5 c 8.5,-2.3 15.6,-4.2 15.7,-4.1 0.1,0.1 -0.4,3.8 -1.2,8.1 -0.8,4.4 -1.4,8.1 -1.5,8.3 0,0.1 -0.8,0.2 -1.9,0.2 -1,0 -6.3,1.4 -11.7,3 -41.6,12.8 -72.7,28.3 -103.6,51.7 -24.8,18.7 -39.9,34 -59.6,60 C 63.3,207.6 42.3,251 34.6,285.5 29.2,309.4 26.825886,327.09972 25.755456,348.16934 24.598916,370.93392 24.8,389.7 28.4,416.5 Z"
       id="path178"
       sodipodi:nodetypes="cascccsccsccccac" />
    <path
       d="m 208.22773,289.96967 c 9.51882,-5.66851 21.67237,-10.67386 30.98163,-12.63033 5.43202,-1.14162 18.645,-2.6057 32.04905,-3.10711 14.85841,-0.5558 26.43935,0.0727 34.62618,-2.66291 17.29397,-5.77872 28.56982,-17.26767 32.18039,-30.34042 1.49085,-5.3979 2.16985,-10.98219 1.55113,-16.06452 -0.70068,-5.7556 -3.89365,-15.38399 -6.46854,-18.70034 7.65573,3.55244 13.50421,17.23897 13.20338,31.10442 -0.37371,17.22406 -13.0606,32.1577 -24.74645,38.26377 -9.47406,4.95038 -29.08518,7.77124 -44.57677,8.07938 -10.95355,0.21788 -20.76029,0.67236 -31.82773,2.18839 -11.53232,1.57971 -30.58589,8.52074 -45.60676,17.46672 -7.81866,4.65656 -18.21827,12.44919 -21.26902,14.46609 4.45077,-6.22439 16.85283,-20.2914 29.90351,-28.06314 z"
       id="path181"
       sodipodi:nodetypes="sssssscssssscs" />
    <path
       d="m 282.3,76.8 c -1.6,-2.7 -0.6,-19.1 1.6,-25.2 4.3,-12 13.6,-22.7 23.4,-27.1 12.6,-5.5 18.3,-6.7 36.2,-7.2 29.7,-0.9 49.3,2 77,11.3 7.2,2.4 19.8,6.1 28.2,8.3 19.3,5.1 26.3,8.5 30.5,14.9 1.6,2.4 2.5,8.2 1.3,8.2 -0.3,0 -2.6,-1.3 -5.2,-2.9 C 470.5,54.2 463.8,51.9 442,46 435.7,44.2 426,41.1 420.5,39 415,36.9 408.9,34.7 407,34.1 c -12,-3.7 -49.7,-5.9 -71.3,-4.2 -11,0.8 -13.8,1.4 -19.4,4.1 -12.9,6 -24.1,20.5 -27.6,35.9 -1.7,7.2 -4.3,10.1 -6.4,6.9 z"
       id="path183" />
  </g>
</svg>
