<?xml version="1.0" encoding="UTF-8" standalone="no"?>
<!DOCTYPE svg PUBLIC "-//W3C//DTD SVG 20010904//EN" "http://www.w3.org/TR/2001/REC-SVG-20010904/DTD/svg10.dtd">
<svg version="1.0" xmlns="http://www.w3.org/2000/svg" width="300.000000pt" height="319.000000pt" viewBox="0 0 300.000000 319.000000" preserveAspectRatio="xMidYMid meet">
<metadata>
Created by potrace 1.10, written by Peter Selinger 2001-2011
</metadata>
<g transform="translate(0.000000,319.000000) scale(0.050000,-0.050000)" fill="#000000" stroke="none">
<path d="M3177 6315 c-73 -26 -181 -83 -240 -128 -87 -67 -137 -88 -270 -115 -1259 -251 -2314 -1289 -2589 -2550 -380 -1734 1006 -3502 2746 -3502 1092 0 1819 261 2376 852 1117 1187 1046 2893 -171 4102 l-265 263 107 71 c65 43 127 106 160 161 68 116 87 115 287 -19 279 -187 300 -77 30 157 l-58 51 115 116 c149 152 167 320 22 199 -224 -185 -335 -226 -354 -131 -34 168 -137 227 -683 390 l-380 114 -350 7 c-326 8 -359 5 -483 -38z m1193 -245 c505 -152 550 -179 550 -322 0 -95 -184 -206 -559 -337 -556 -193 -887 -224 -1121 -104 -71 37 -173 89 -224 115 -221 112 -188 499 57 673 129 91 215 106 577 98 l340 -7 380 -116z m-1647 -319 c-8 -214 19 -324 119 -480 33 -53 57 -98 54 -100 -3 -2 -127 -48 -276 -100 -789 -280 -1197 -648 -1468 -1325 -250 -626 -230 -1189 69 -1886 56 -132 112 -304 130 -400 66 -348 238 -672 518 -975 150 -162 145 -163 -142 -18 -751 378 -1266 1020 -1501 1873 -52 189 -51 877 2 1120 230 1058 1019 1971 2012 2329 129 46 450 147 480 150 6 1 7 -84 3 -188z m2304 -993 c914 -980 1033 -2150 325 -3215 -572 -860 -1720 -1295 -2645 -1002 -560 178 -831 366 -986 683 -223 458 -232 753 -33 1064 175 273 284 290 1082 163 853 -135 1190 -74 1545 280 91 90 165 157 165 148 0 -244 -303 -619 -632 -782 l-174 -86 -374 -11 c-447 -12 -521 -40 -624 -238 -142 -271 -52 -462 244 -518 216 -42 300 -46 464 -24 1202 161 1849 1357 1347 2490 -29 66 -75 226 -101 356 -48 244 -131 451 -249 622 l-61 89 235 80 c306 104 276 110 472 -99z m-772 -195 c280 -415 191 -1010 -208 -1383 -252 -236 -463 -295 -1137 -322 -822 -32 -1036 -94 -1249 -361 -107 -134 -113 -133 -82 7 172 759 472 1031 1191 1078 240 16 342 31 410 61 363 159 379 624 29 795 -99 49 -122 41 451 160 553 116 490 120 595 -35z m-1895 -84 c39 -11 192 -47 340 -80 518 -114 681 -237 592 -446 -67 -156 -155 -191 -550 -215 -782 -47 -1105 -339 -1352 -1226 -37 -131 -53 -128 -89 18 -134 554 57 1165 509 1623 309 313 404 369 550 326z m2342 -1942 c-167 -657 -704 -1119 -1359 -1169 -320 -24 -563 50 -563 173 0 188 127 259 508 282 802 48 1231 374 1375 1048 60 282 66 286 73 41 4 -166 -4 -255 -34 -375z"/>
<path d="M3858 5922 c-62 -62 -78 -92 -78 -151 0 -307 422 -382 501 -88 70 262 -231 432 -423 239z m245 -95 c45 -41 48 -113 6 -156 -43 -42 -101 -39 -149 9 -97 97 41 239 143 147z"/>
</g>
</svg>